<svg width="23" height="23" viewBox="0 0 23 23" fill="none" xmlns="http://www.w3.org/2000/svg">
<g clip-path="url(#clip0_12_111)">
<path fill-rule="evenodd" clip-rule="evenodd" d="M9.67437 17.5734C5.15343 17.5734 1.48854 13.9725 1.48854 9.52344C1.48854 5.07438 5.15343 1.46628 9.67437 1.46628C14.1953 1.46628 17.8609 5.07438 17.8609 9.52344C17.8609 13.9725 14.1953 17.5734 9.67437 17.5734ZM22.7757 21.7422L16.8396 15.8987C18.3935 14.2097 19.3488 11.9816 19.3488 9.52344C19.3488 4.26219 15.0176 0 9.67437 0C4.33118 0 0 4.26219 0 9.52344C0 14.7775 4.33118 19.0397 9.67437 19.0397C11.983 19.0397 14.1004 18.2419 15.7636 16.9122L21.7235 22.7771C22.0146 23.0646 22.4854 23.0646 22.7757 22.7771C23.0668 22.4968 23.0668 22.0297 22.7757 21.7422Z" fill="white"/>
</g>
<defs>
<clipPath id="clip0_12_111">
<rect width="23" height="23" fill="white"/>
</clipPath>
</defs>
</svg>
